<svg width="24" height="24" viewBox="0 0 24 24" fill="none" xmlns="http://www.w3.org/2000/svg">
<path d="M9.47004 15.2799C9.28004 15.2799 9.09004 15.2099 8.94004 15.0599C8.12004 14.2399 7.67004 13.1499 7.67004 11.9999C7.67004 9.60992 9.61004 7.66992 12 7.66992C13.15 7.66992 14.24 8.11992 15.06 8.93992C15.2 9.07992 15.28 9.26992 15.28 9.46992C15.28 9.66992 15.2 9.85992 15.06 9.99992L10 15.0599C9.85004 15.2099 9.66004 15.2799 9.47004 15.2799ZM12 9.16992C10.44 9.16992 9.17004 10.4399 9.17004 11.9999C9.17004 12.4999 9.30004 12.9799 9.54004 13.3999L13.4 9.53992C12.98 9.29992 12.5 9.16992 12 9.16992Z" fill="#1B1B1B"/>
<path d="M5.59997 18.5105C5.42997 18.5105 5.24997 18.4505 5.10997 18.3305C4.03997 17.4205 3.07997 16.3005 2.25997 15.0005C1.19997 13.3505 1.19997 10.6605 2.25997 9.00047C4.69997 5.18047 8.24997 2.98047 12 2.98047C14.2 2.98047 16.37 3.74047 18.27 5.17047C18.6 5.42047 18.67 5.89047 18.42 6.22047C18.17 6.55047 17.7 6.62047 17.37 6.37047C15.73 5.13047 13.87 4.48047 12 4.48047C8.76997 4.48047 5.67997 6.42047 3.51997 9.81047C2.76997 10.9805 2.76997 13.0205 3.51997 14.1905C4.26997 15.3605 5.12997 16.3705 6.07997 17.1905C6.38997 17.4605 6.42997 17.9305 6.15997 18.2505C6.01997 18.4205 5.80997 18.5105 5.59997 18.5105Z" fill="#1B1B1B"/>
<path d="M11.9999 21.0205C10.6699 21.0205 9.36994 20.7505 8.11994 20.2205C7.73994 20.0605 7.55994 19.6205 7.71994 19.2405C7.87994 18.8605 8.31994 18.6805 8.69994 18.8405C9.75994 19.2905 10.8699 19.5205 11.9899 19.5205C15.2199 19.5205 18.3099 17.5805 20.4699 14.1905C21.2199 13.0205 21.2199 10.9805 20.4699 9.81049C20.1599 9.32049 19.8199 8.85049 19.4599 8.41049C19.1999 8.09049 19.2499 7.62049 19.5699 7.35049C19.8899 7.09049 20.3599 7.13049 20.6299 7.46049C21.0199 7.94049 21.3999 8.46049 21.7399 9.00049C22.7999 10.6505 22.7999 13.3405 21.7399 15.0005C19.2999 18.8205 15.7499 21.0205 11.9999 21.0205Z" fill="#1B1B1B"/>
<path d="M12.69 16.2703C12.34 16.2703 12.02 16.0203 11.95 15.6603C11.87 15.2503 12.14 14.8603 12.55 14.7903C13.65 14.5903 14.57 13.6703 14.77 12.5703C14.85 12.1603 15.24 11.9003 15.65 11.9703C16.06 12.0503 16.33 12.4403 16.25 12.8503C15.93 14.5803 14.55 15.9503 12.83 16.2703C12.78 16.2603 12.74 16.2703 12.69 16.2703Z" fill="#1B1B1B"/>
<path d="M1.99994 22.7497C1.80994 22.7497 1.61994 22.6797 1.46994 22.5297C1.17994 22.2397 1.17994 21.7597 1.46994 21.4697L8.93994 13.9997C9.22994 13.7097 9.70994 13.7097 9.99994 13.9997C10.2899 14.2897 10.2899 14.7697 9.99994 15.0597L2.52994 22.5297C2.37994 22.6797 2.18994 22.7497 1.99994 22.7497Z" fill="#1B1B1B"/>
<path d="M14.53 10.2204C14.34 10.2204 14.15 10.1504 14 10.0004C13.71 9.71043 13.71 9.23043 14 8.94043L21.47 1.47043C21.76 1.18043 22.24 1.18043 22.53 1.47043C22.82 1.76043 22.82 2.24043 22.53 2.53043L15.06 10.0004C14.91 10.1504 14.72 10.2204 14.53 10.2204Z" fill="#1B1B1B"/>
</svg>
