<svg width="446" height="88" viewBox="0 0 446 88" fill="none" xmlns="http://www.w3.org/2000/svg">
<path d="M18.0625 9.55114C17.911 8.20644 17.286 7.16477 16.1875 6.42614C15.089 5.67803 13.7064 5.30398 12.0398 5.30398C10.8466 5.30398 9.81439 5.49337 8.94318 5.87216C8.07197 6.24148 7.39489 6.75284 6.91193 7.40625C6.43845 8.05019 6.2017 8.78409 6.2017 9.60795C6.2017 10.2992 6.36269 10.8958 6.68466 11.3977C7.0161 11.8996 7.44697 12.321 7.97727 12.6619C8.51705 12.9934 9.0947 13.2727 9.71023 13.5C10.3258 13.7178 10.9176 13.8977 11.4858 14.0398L14.3267 14.7784C15.2547 15.0057 16.2064 15.3134 17.1818 15.7017C18.1572 16.09 19.0616 16.6013 19.8949 17.2358C20.7282 17.8703 21.4006 18.6562 21.9119 19.5938C22.4328 20.5312 22.6932 21.6534 22.6932 22.9602C22.6932 24.608 22.267 26.071 21.4148 27.3494C20.572 28.6278 19.3456 29.6364 17.7358 30.375C16.1354 31.1136 14.1989 31.483 11.9261 31.483C9.74811 31.483 7.86364 31.1373 6.27273 30.446C4.68182 29.7547 3.43655 28.7746 2.53693 27.5057C1.63731 26.2273 1.14015 24.7121 1.04545 22.9602H5.44886C5.53409 24.0114 5.875 24.8873 6.47159 25.5881C7.07765 26.2794 7.84943 26.7955 8.78693 27.1364C9.7339 27.4678 10.7708 27.6335 11.8977 27.6335C13.1383 27.6335 14.2415 27.4394 15.2074 27.0511C16.1828 26.6534 16.9498 26.1042 17.5085 25.4034C18.0672 24.6932 18.3466 23.8646 18.3466 22.9176C18.3466 22.0559 18.1004 21.3504 17.608 20.8011C17.125 20.2519 16.4669 19.7973 15.6335 19.4375C14.8097 19.0777 13.8769 18.7604 12.8352 18.4858L9.39773 17.5483C7.06818 16.9138 5.22159 15.9811 3.85795 14.75C2.50379 13.5189 1.8267 11.8902 1.8267 9.86364C1.8267 8.1875 2.28125 6.72443 3.19034 5.47443C4.09943 4.22443 5.33049 3.25379 6.88352 2.5625C8.43655 1.86174 10.1884 1.51136 12.1392 1.51136C14.1089 1.51136 15.8466 1.85701 17.3523 2.5483C18.8674 3.23958 20.0606 4.19129 20.9318 5.40341C21.803 6.60606 22.2576 7.98864 22.2955 9.55114H18.0625ZM41.4183 21.9517V9.18182H45.6797V31H41.5036V27.2216H41.2763C40.7744 28.3864 39.9695 29.357 38.8615 30.1335C37.763 30.9006 36.3946 31.2841 34.7564 31.2841C33.3549 31.2841 32.1143 30.9763 31.0348 30.3608C29.9647 29.7358 29.1219 28.8125 28.5064 27.5909C27.9003 26.3693 27.5973 24.8589 27.5973 23.0597V9.18182H31.8445V22.5483C31.8445 24.035 32.2564 25.2187 33.0803 26.0994C33.9041 26.9801 34.9742 27.4205 36.2905 27.4205C37.0859 27.4205 37.8767 27.2216 38.6626 26.8239C39.4581 26.4261 40.1162 25.8248 40.6371 25.0199C41.1674 24.215 41.4278 23.1922 41.4183 21.9517ZM51.7273 31V1.90909H55.9744V12.7188H56.2301C56.4763 12.2642 56.8314 11.7386 57.2955 11.142C57.7595 10.5455 58.4034 10.0246 59.2273 9.57955C60.0511 9.125 61.1402 8.89773 62.4943 8.89773C64.2557 8.89773 65.8277 9.3428 67.2102 10.233C68.5928 11.1231 69.6771 12.4062 70.4631 14.0824C71.2585 15.7585 71.6562 17.7756 71.6562 20.1335C71.6562 22.4915 71.2633 24.5133 70.4773 26.1989C69.6913 27.875 68.6117 29.1676 67.2386 30.0767C65.8655 30.9763 64.2983 31.4261 62.5369 31.4261C61.2112 31.4261 60.1269 31.2036 59.2841 30.7585C58.4508 30.3134 57.7973 29.7926 57.3239 29.196C56.8504 28.5994 56.4858 28.0691 56.2301 27.6051H55.875V31H51.7273ZM55.8892 20.0909C55.8892 21.625 56.1117 22.9697 56.5568 24.125C57.0019 25.2803 57.6458 26.1847 58.4886 26.8381C59.3314 27.482 60.3636 27.804 61.5852 27.804C62.8542 27.804 63.9148 27.4678 64.767 26.7955C65.6193 26.1136 66.2633 25.1903 66.6989 24.0256C67.1439 22.8608 67.3665 21.5492 67.3665 20.0909C67.3665 18.6515 67.1487 17.3589 66.7131 16.2131C66.2869 15.0672 65.643 14.1629 64.7812 13.5C63.929 12.8371 62.8636 12.5057 61.5852 12.5057C60.3542 12.5057 59.3125 12.8229 58.4602 13.4574C57.6174 14.0919 56.9782 14.9773 56.5426 16.1136C56.107 17.25 55.8892 18.5758 55.8892 20.0909ZM92.7749 14.5085L88.9254 15.1903C88.7644 14.6979 88.5088 14.2292 88.1584 13.7841C87.8175 13.339 87.3535 12.9744 86.7663 12.6903C86.1792 12.4062 85.4453 12.2642 84.5646 12.2642C83.362 12.2642 82.3582 12.5341 81.5533 13.0739C80.7483 13.6042 80.3459 14.2907 80.3459 15.1335C80.3459 15.8627 80.6158 16.4498 81.1555 16.8949C81.6953 17.34 82.5665 17.7045 83.7692 17.9886L87.2351 18.7841C89.2427 19.2481 90.7389 19.9631 91.7237 20.929C92.7086 21.8949 93.201 23.1496 93.201 24.6932C93.201 26 92.8222 27.1648 92.0646 28.1875C91.3165 29.2008 90.2701 29.9962 88.9254 30.5739C87.5902 31.1515 86.0419 31.4403 84.2805 31.4403C81.8374 31.4403 79.844 30.9195 78.3004 29.8778C76.7569 28.8267 75.8099 27.3352 75.4595 25.4034L79.5646 24.7784C79.8203 25.8485 80.3459 26.6581 81.1413 27.2074C81.9368 27.7472 82.9737 28.017 84.2521 28.017C85.6442 28.017 86.7569 27.7282 87.5902 27.1506C88.4235 26.5634 88.8402 25.8485 88.8402 25.0057C88.8402 24.3239 88.5845 23.7509 88.0732 23.2869C87.5713 22.8229 86.7995 22.4725 85.7578 22.2358L82.0646 21.4261C80.0286 20.9621 78.523 20.2235 77.5476 19.2102C76.5817 18.197 76.0987 16.9138 76.0987 15.3608C76.0987 14.0729 76.4586 12.946 77.1783 11.9801C77.898 11.0142 78.8923 10.2614 80.1612 9.72159C81.4302 9.17235 82.8838 8.89773 84.522 8.89773C86.88 8.89773 88.736 9.40909 90.0902 10.4318C91.4444 11.4451 92.3393 12.804 92.7749 14.5085ZM107.061 31.4403C104.949 31.4403 103.131 30.9621 101.607 30.0057C100.091 29.0398 98.9266 27.7093 98.1122 26.0142C97.2978 24.3191 96.8906 22.3778 96.8906 20.1903C96.8906 17.9744 97.3073 16.0189 98.1406 14.3239C98.974 12.6193 100.148 11.2888 101.663 10.3324C103.179 9.37595 104.964 8.89773 107.018 8.89773C108.676 8.89773 110.153 9.20549 111.45 9.82102C112.748 10.4271 113.794 11.2794 114.589 12.3778C115.394 13.4763 115.873 14.7595 116.024 16.2273H111.891C111.663 15.2045 111.143 14.3239 110.328 13.5852C109.523 12.8466 108.444 12.4773 107.089 12.4773C105.906 12.4773 104.869 12.7898 103.979 13.4148C103.098 14.0303 102.411 14.911 101.919 16.0568C101.427 17.1932 101.18 18.5379 101.18 20.0909C101.18 21.6818 101.422 23.0549 101.905 24.2102C102.388 25.3655 103.07 26.2604 103.95 26.8949C104.84 27.5294 105.887 27.8466 107.089 27.8466C107.894 27.8466 108.624 27.6998 109.277 27.4062C109.94 27.1032 110.494 26.6723 110.939 26.1136C111.393 25.5549 111.711 24.8826 111.891 24.0966H116.024C115.873 25.5076 115.413 26.767 114.646 27.875C113.879 28.983 112.852 29.8542 111.564 30.4886C110.286 31.1231 108.785 31.4403 107.061 31.4403ZM120.566 31V9.18182H124.671V12.6477H124.898C125.296 11.4735 125.997 10.5502 127.001 9.87784C128.014 9.19602 129.16 8.85511 130.438 8.85511C130.703 8.85511 131.016 8.86458 131.376 8.88352C131.745 8.90246 132.034 8.92614 132.242 8.95455V13.017C132.072 12.9697 131.769 12.9176 131.333 12.8608C130.897 12.7945 130.462 12.7614 130.026 12.7614C129.022 12.7614 128.128 12.9744 127.342 13.4006C126.565 13.8172 125.95 14.3996 125.495 15.1477C125.04 15.8864 124.813 16.7292 124.813 17.6761V31H120.566ZM135.918 31V9.18182H140.165V31H135.918ZM138.062 5.81534C137.324 5.81534 136.689 5.56913 136.159 5.0767C135.638 4.57481 135.378 3.97822 135.378 3.28693C135.378 2.58617 135.638 1.98958 136.159 1.49716C136.689 0.995264 137.324 0.744318 138.062 0.744318C138.801 0.744318 139.431 0.995264 139.952 1.49716C140.482 1.98958 140.747 2.58617 140.747 3.28693C140.747 3.97822 140.482 4.57481 139.952 5.0767C139.431 5.56913 138.801 5.81534 138.062 5.81534ZM146.219 31V1.90909H150.467V12.7188H150.722C150.969 12.2642 151.324 11.7386 151.788 11.142C152.252 10.5455 152.896 10.0246 153.719 9.57955C154.543 9.125 155.632 8.89773 156.987 8.89773C158.748 8.89773 160.32 9.3428 161.702 10.233C163.085 11.1231 164.169 12.4062 164.955 14.0824C165.751 15.7585 166.148 17.7756 166.148 20.1335C166.148 22.4915 165.755 24.5133 164.969 26.1989C164.183 27.875 163.104 29.1676 161.731 30.0767C160.358 30.9763 158.79 31.4261 157.029 31.4261C155.703 31.4261 154.619 31.2036 153.776 30.7585C152.943 30.3134 152.29 29.7926 151.816 29.196C151.343 28.5994 150.978 28.0691 150.722 27.6051H150.367V31H146.219ZM150.381 20.0909C150.381 21.625 150.604 22.9697 151.049 24.125C151.494 25.2803 152.138 26.1847 152.981 26.8381C153.824 27.482 154.856 27.804 156.077 27.804C157.346 27.804 158.407 27.4678 159.259 26.7955C160.112 26.1136 160.755 25.1903 161.191 24.0256C161.636 22.8608 161.859 21.5492 161.859 20.0909C161.859 18.6515 161.641 17.3589 161.205 16.2131C160.779 15.0672 160.135 14.1629 159.273 13.5C158.421 12.8371 157.356 12.5057 156.077 12.5057C154.846 12.5057 153.805 12.8229 152.952 13.4574C152.11 14.0919 151.47 14.9773 151.035 16.1136C150.599 17.25 150.381 18.5758 150.381 20.0909ZM180.321 31.4403C178.171 31.4403 176.32 30.9811 174.767 30.0625C173.223 29.1345 172.03 27.8324 171.188 26.1562C170.354 24.4706 169.938 22.4962 169.938 20.233C169.938 17.9981 170.354 16.0284 171.188 14.3239C172.03 12.6193 173.205 11.2888 174.71 10.3324C176.225 9.37595 177.996 8.89773 180.023 8.89773C181.254 8.89773 182.447 9.10133 183.602 9.50852C184.758 9.91572 185.795 10.5549 186.713 11.4261C187.632 12.2973 188.356 13.429 188.886 14.821C189.417 16.2036 189.682 17.8845 189.682 19.8636V21.3693H172.338V18.1875H185.52C185.52 17.0701 185.293 16.0805 184.838 15.2188C184.384 14.3475 183.744 13.661 182.92 13.1591C182.106 12.6572 181.15 12.4062 180.051 12.4062C178.858 12.4062 177.816 12.6998 176.926 13.2869C176.045 13.8646 175.364 14.6222 174.881 15.5597C174.407 16.4877 174.17 17.4962 174.17 18.5852V21.071C174.17 22.5294 174.426 23.7699 174.938 24.7926C175.458 25.8153 176.183 26.5966 177.111 27.1364C178.039 27.6667 179.123 27.9318 180.364 27.9318C181.169 27.9318 181.902 27.8182 182.565 27.5909C183.228 27.3542 183.801 27.0038 184.284 26.5398C184.767 26.0758 185.136 25.5028 185.392 24.821L189.412 25.5455C189.09 26.7292 188.512 27.7661 187.679 28.6562C186.855 29.5369 185.818 30.2235 184.568 30.7159C183.328 31.1989 181.912 31.4403 180.321 31.4403ZM215.165 9.18182V12.5909H203.247V9.18182H215.165ZM206.443 3.95455H210.69V24.5938C210.69 25.4176 210.813 26.0379 211.06 26.4545C211.306 26.8617 211.623 27.1411 212.011 27.2926C212.409 27.4347 212.84 27.5057 213.304 27.5057C213.645 27.5057 213.943 27.482 214.199 27.4347C214.455 27.3873 214.653 27.3494 214.795 27.321L215.562 30.8295C215.316 30.9242 214.966 31.0189 214.511 31.1136C214.057 31.2178 213.489 31.2746 212.807 31.2841C211.689 31.303 210.648 31.1042 209.682 30.6875C208.716 30.2708 207.935 29.6269 207.338 28.7557C206.741 27.8845 206.443 26.7907 206.443 25.4744V3.95455ZM228.819 31.4403C226.773 31.4403 224.988 30.9716 223.464 30.0341C221.939 29.0966 220.755 27.785 219.913 26.0994C219.07 24.4138 218.648 22.4441 218.648 20.1903C218.648 17.9271 219.07 15.9479 219.913 14.2528C220.755 12.5578 221.939 11.2415 223.464 10.304C224.988 9.36648 226.773 8.89773 228.819 8.89773C230.864 8.89773 232.649 9.36648 234.174 10.304C235.699 11.2415 236.882 12.5578 237.725 14.2528C238.568 15.9479 238.989 17.9271 238.989 20.1903C238.989 22.4441 238.568 24.4138 237.725 26.0994C236.882 27.785 235.699 29.0966 234.174 30.0341C232.649 30.9716 230.864 31.4403 228.819 31.4403ZM228.833 27.875C230.159 27.875 231.257 27.5246 232.129 26.8239C233 26.1231 233.644 25.1903 234.06 24.0256C234.487 22.8608 234.7 21.5777 234.7 20.1761C234.7 18.7841 234.487 17.5057 234.06 16.3409C233.644 15.1667 233 14.2244 232.129 13.5142C231.257 12.804 230.159 12.4489 228.833 12.4489C227.498 12.4489 226.39 12.804 225.509 13.5142C224.638 14.2244 223.989 15.1667 223.563 16.3409C223.147 17.5057 222.938 18.7841 222.938 20.1761C222.938 21.5777 223.147 22.8608 223.563 24.0256C223.989 25.1903 224.638 26.1231 225.509 26.8239C226.39 27.5246 227.498 27.875 228.833 27.875ZM263.464 39.6364C261.731 39.6364 260.239 39.4091 258.989 38.9545C257.749 38.5 256.736 37.8987 255.95 37.1506C255.164 36.4025 254.576 35.5833 254.188 34.6932L257.839 33.1875C258.094 33.6042 258.435 34.0445 258.862 34.5085C259.297 34.982 259.884 35.3845 260.623 35.7159C261.371 36.0473 262.332 36.2131 263.506 36.2131C265.116 36.2131 266.447 35.8201 267.498 35.0341C268.549 34.2576 269.075 33.017 269.075 31.3125V27.0227H268.805C268.549 27.4867 268.18 28.0028 267.697 28.571C267.223 29.1392 266.57 29.6316 265.737 30.0483C264.903 30.465 263.819 30.6733 262.484 30.6733C260.76 30.6733 259.207 30.2708 257.825 29.4659C256.451 28.6515 255.362 27.4536 254.558 25.8722C253.762 24.2812 253.364 22.3258 253.364 20.0057C253.364 17.6856 253.757 15.697 254.543 14.0398C255.339 12.3826 256.428 11.1136 257.81 10.233C259.193 9.3428 260.76 8.89773 262.512 8.89773C263.866 8.89773 264.96 9.125 265.793 9.57955C266.627 10.0246 267.275 10.5455 267.739 11.142C268.213 11.7386 268.577 12.2642 268.833 12.7188H269.146V9.18182H273.308V31.483C273.308 33.358 272.872 34.8968 272.001 36.0994C271.129 37.3021 269.951 38.1922 268.464 38.7699C266.987 39.3475 265.32 39.6364 263.464 39.6364ZM263.421 27.1506C264.643 27.1506 265.675 26.8665 266.518 26.2983C267.37 25.7206 268.014 24.8968 268.45 23.8267C268.895 22.7472 269.117 21.4545 269.117 19.9489C269.117 18.4811 268.899 17.1884 268.464 16.071C268.028 14.9536 267.389 14.0824 266.546 13.4574C265.703 12.8229 264.662 12.5057 263.421 12.5057C262.143 12.5057 261.077 12.8371 260.225 13.5C259.373 14.1534 258.729 15.0436 258.293 16.1705C257.867 17.2973 257.654 18.5568 257.654 19.9489C257.654 21.3788 257.872 22.6335 258.308 23.7131C258.743 24.7926 259.387 25.6354 260.239 26.2415C261.101 26.8475 262.162 27.1506 263.421 27.1506ZM288.407 31.4403C286.257 31.4403 284.406 30.9811 282.853 30.0625C281.309 29.1345 280.116 27.8324 279.273 26.1562C278.44 24.4706 278.023 22.4962 278.023 20.233C278.023 17.9981 278.44 16.0284 279.273 14.3239C280.116 12.6193 281.29 11.2888 282.796 10.3324C284.311 9.37595 286.082 8.89773 288.109 8.89773C289.34 8.89773 290.533 9.10133 291.688 9.50852C292.844 9.91572 293.88 10.5549 294.799 11.4261C295.718 12.2973 296.442 13.429 296.972 14.821C297.503 16.2036 297.768 17.8845 297.768 19.8636V21.3693H280.424V18.1875H293.606C293.606 17.0701 293.379 16.0805 292.924 15.2188C292.469 14.3475 291.83 13.661 291.006 13.1591C290.192 12.6572 289.236 12.4062 288.137 12.4062C286.944 12.4062 285.902 12.6998 285.012 13.2869C284.131 13.8646 283.45 14.6222 282.967 15.5597C282.493 16.4877 282.256 17.4962 282.256 18.5852V21.071C282.256 22.5294 282.512 23.7699 283.023 24.7926C283.544 25.8153 284.269 26.5966 285.197 27.1364C286.125 27.6667 287.209 27.9318 288.45 27.9318C289.254 27.9318 289.988 27.8182 290.651 27.5909C291.314 27.3542 291.887 27.0038 292.37 26.5398C292.853 26.0758 293.222 25.5028 293.478 24.821L297.498 25.5455C297.176 26.7292 296.598 27.7661 295.765 28.6562C294.941 29.5369 293.904 30.2235 292.654 30.7159C291.414 31.1989 289.998 31.4403 288.407 31.4403ZM312.665 9.18182V12.5909H300.747V9.18182H312.665ZM303.943 3.95455H308.19V24.5938C308.19 25.4176 308.313 26.0379 308.56 26.4545C308.806 26.8617 309.123 27.1411 309.511 27.2926C309.909 27.4347 310.34 27.5057 310.804 27.5057C311.145 27.5057 311.443 27.482 311.699 27.4347C311.955 27.3873 312.153 27.3494 312.295 27.321L313.062 30.8295C312.816 30.9242 312.466 31.0189 312.011 31.1136C311.557 31.2178 310.989 31.2746 310.307 31.2841C309.189 31.303 308.148 31.1042 307.182 30.6875C306.216 30.2708 305.435 29.6269 304.838 28.7557C304.241 27.8845 303.943 26.7907 303.943 25.4744V3.95455ZM346.997 1.90909H351.401V21.0426C351.401 23.0786 350.922 24.8826 349.966 26.4545C349.009 28.017 347.665 29.2481 345.932 30.1477C344.199 31.0379 342.168 31.483 339.838 31.483C337.518 31.483 335.491 31.0379 333.759 30.1477C332.026 29.2481 330.681 28.017 329.724 26.4545C328.768 24.8826 328.29 23.0786 328.29 21.0426V1.90909H332.679V20.6875C332.679 22.0038 332.968 23.1733 333.545 24.196C334.133 25.2188 334.961 26.0237 336.031 26.6108C337.101 27.1884 338.37 27.4773 339.838 27.4773C341.315 27.4773 342.589 27.1884 343.659 26.6108C344.739 26.0237 345.563 25.2188 346.131 24.196C346.708 23.1733 346.997 22.0038 346.997 20.6875V1.90909ZM373.79 14.5085L369.941 15.1903C369.78 14.6979 369.524 14.2292 369.174 13.7841C368.833 13.339 368.369 12.9744 367.782 12.6903C367.195 12.4062 366.461 12.2642 365.58 12.2642C364.378 12.2642 363.374 12.5341 362.569 13.0739C361.764 13.6042 361.362 14.2907 361.362 15.1335C361.362 15.8627 361.631 16.4498 362.171 16.8949C362.711 17.34 363.582 17.7045 364.785 17.9886L368.251 18.7841C370.258 19.2481 371.754 19.9631 372.739 20.929C373.724 21.8949 374.217 23.1496 374.217 24.6932C374.217 26 373.838 27.1648 373.08 28.1875C372.332 29.2008 371.286 29.9962 369.941 30.5739C368.606 31.1515 367.058 31.4403 365.296 31.4403C362.853 31.4403 360.86 30.9195 359.316 29.8778C357.772 28.8267 356.826 27.3352 356.475 25.4034L360.58 24.7784C360.836 25.8485 361.362 26.6581 362.157 27.2074C362.952 27.7472 363.989 28.017 365.268 28.017C366.66 28.017 367.772 27.7282 368.606 27.1506C369.439 26.5634 369.856 25.8485 369.856 25.0057C369.856 24.3239 369.6 23.7509 369.089 23.2869C368.587 22.8229 367.815 22.4725 366.773 22.2358L363.08 21.4261C361.044 20.9621 359.539 20.2235 358.563 19.2102C357.597 18.197 357.114 16.9138 357.114 15.3608C357.114 14.0729 357.474 12.946 358.194 11.9801C358.914 11.0142 359.908 10.2614 361.177 9.72159C362.446 9.17235 363.899 8.89773 365.538 8.89773C367.896 8.89773 369.752 9.40909 371.106 10.4318C372.46 11.4451 373.355 12.804 373.79 14.5085ZM388.29 31.4403C386.14 31.4403 384.289 30.9811 382.736 30.0625C381.192 29.1345 379.999 27.8324 379.156 26.1562C378.323 24.4706 377.906 22.4962 377.906 20.233C377.906 17.9981 378.323 16.0284 379.156 14.3239C379.999 12.6193 381.173 11.2888 382.679 10.3324C384.194 9.37595 385.965 8.89773 387.991 8.89773C389.223 8.89773 390.416 9.10133 391.571 9.50852C392.726 9.91572 393.763 10.5549 394.682 11.4261C395.6 12.2973 396.325 13.429 396.855 14.821C397.385 16.2036 397.651 17.8845 397.651 19.8636V21.3693H380.307V18.1875H393.489C393.489 17.0701 393.261 16.0805 392.807 15.2188C392.352 14.3475 391.713 13.661 390.889 13.1591C390.075 12.6572 389.118 12.4062 388.02 12.4062C386.827 12.4062 385.785 12.6998 384.895 13.2869C384.014 13.8646 383.332 14.6222 382.849 15.5597C382.376 16.4877 382.139 17.4962 382.139 18.5852V21.071C382.139 22.5294 382.395 23.7699 382.906 24.7926C383.427 25.8153 384.152 26.5966 385.08 27.1364C386.008 27.6667 387.092 27.9318 388.332 27.9318C389.137 27.9318 389.871 27.8182 390.534 27.5909C391.197 27.3542 391.77 27.0038 392.253 26.5398C392.736 26.0758 393.105 25.5028 393.361 24.821L397.381 25.5455C397.059 26.7292 396.481 27.7661 395.648 28.6562C394.824 29.5369 393.787 30.2235 392.537 30.7159C391.296 31.1989 389.881 31.4403 388.29 31.4403ZM412.746 9.18182V12.5909H400.417V9.18182H412.746ZM403.798 31V6.65341C403.798 5.28977 404.096 4.15814 404.692 3.25852C405.289 2.34943 406.08 1.67235 407.065 1.22727C408.049 0.772726 409.12 0.545453 410.275 0.545453C411.127 0.545453 411.856 0.616476 412.462 0.758523C413.068 0.891098 413.518 1.0142 413.812 1.12784L412.817 4.56534C412.619 4.50852 412.363 4.44223 412.05 4.36648C411.738 4.28125 411.359 4.23864 410.914 4.23864C409.882 4.23864 409.143 4.49432 408.698 5.00568C408.263 5.51705 408.045 6.25568 408.045 7.22159V31H403.798ZM430.95 21.9517V9.18182H435.211V31H431.035V27.2216H430.808C430.306 28.3864 429.501 29.357 428.393 30.1335C427.294 30.9006 425.926 31.2841 424.288 31.2841C422.886 31.2841 421.646 30.9763 420.566 30.3608C419.496 29.7358 418.653 28.8125 418.038 27.5909C417.432 26.3693 417.129 24.8589 417.129 23.0597V9.18182H421.376V22.5483C421.376 24.035 421.788 25.2187 422.612 26.0994C423.435 26.9801 424.505 27.4205 425.822 27.4205C426.617 27.4205 427.408 27.2216 428.194 26.8239C428.989 26.4261 429.647 25.8248 430.168 25.0199C430.699 24.215 430.959 23.1922 430.95 21.9517ZM445.165 1.90909V31H440.918V1.90909H445.165ZM0.761364 53.6875V49.9091H23.2756V53.6875H14.1989V79H9.82386V53.6875H0.761364ZM25.6442 79V57.1818H29.7493V60.6477H29.9766C30.3743 59.4735 31.075 58.5502 32.0788 57.8778C33.0921 57.196 34.2379 56.8551 35.5163 56.8551C35.7815 56.8551 36.094 56.8646 36.4538 56.8835C36.8232 56.9025 37.112 56.9261 37.3203 56.9545V61.017C37.1499 60.9697 36.8468 60.9176 36.4112 60.8608C35.9756 60.7945 35.54 60.7614 35.1044 60.7614C34.1006 60.7614 33.2057 60.9744 32.4197 61.4006C31.6432 61.8172 31.0277 62.3996 30.5732 63.1477C30.1186 63.8864 29.8913 64.7292 29.8913 65.6761V79H25.6442ZM47.1499 79.483C45.7673 79.483 44.5173 79.2273 43.3999 78.7159C42.2824 78.1951 41.397 77.4422 40.7436 76.4574C40.0997 75.4725 39.7777 74.2652 39.7777 72.8352C39.7777 71.6042 40.0144 70.5909 40.4879 69.7955C40.9614 69 41.6006 68.3703 42.4055 67.9062C43.2105 67.4422 44.1101 67.0919 45.1044 66.8551C46.0987 66.6184 47.112 66.4384 48.1442 66.3153C49.451 66.1638 50.5116 66.0407 51.326 65.946C52.1404 65.8419 52.7322 65.6761 53.1016 65.4489C53.4709 65.2216 53.6555 64.8523 53.6555 64.3409V64.2415C53.6555 63.0009 53.3052 62.0398 52.6044 61.358C51.9131 60.6761 50.8809 60.3352 49.5078 60.3352C48.0779 60.3352 46.951 60.6525 46.1271 61.2869C45.3127 61.9119 44.7493 62.608 44.4368 63.375L40.4453 62.4659C40.9188 61.1402 41.6101 60.0701 42.5192 59.2557C43.4377 58.4318 44.4936 57.8352 45.6868 57.4659C46.88 57.0871 48.1347 56.8977 49.451 56.8977C50.3222 56.8977 51.2455 57.0019 52.2209 57.2102C53.2057 57.4091 54.1243 57.7784 54.9766 58.3182C55.8383 58.858 56.5438 59.6297 57.093 60.6335C57.6423 61.6278 57.9169 62.9205 57.9169 64.5114V79H53.7692V76.017H53.5987C53.3241 76.5663 52.9122 77.1061 52.3629 77.6364C51.8137 78.1667 51.1082 78.607 50.2464 78.9574C49.3847 79.3078 48.3525 79.483 47.1499 79.483ZM48.0732 76.0739C49.2474 76.0739 50.2512 75.8419 51.0845 75.3778C51.9273 74.9138 52.5665 74.3078 53.0021 73.5597C53.4472 72.8021 53.6697 71.9924 53.6697 71.1307V68.3182C53.5182 68.4697 53.2247 68.6117 52.7891 68.7443C52.3629 68.8674 51.8752 68.9763 51.326 69.071C50.7768 69.1562 50.2417 69.2367 49.7209 69.3125C49.2 69.3788 48.7644 69.4356 48.4141 69.483C47.5902 69.5871 46.8374 69.7623 46.1555 70.0085C45.4832 70.2547 44.9434 70.6098 44.5362 71.0739C44.1385 71.5284 43.9396 72.1345 43.9396 72.892C43.9396 73.9432 44.3279 74.7386 45.1044 75.2784C45.8809 75.8087 46.8705 76.0739 48.0732 76.0739ZM81.4574 57.1818L73.5455 79H69L61.0739 57.1818H65.6335L71.1591 73.9716H71.3864L76.8977 57.1818H81.4574ZM94.1101 79.4403C91.9605 79.4403 90.1091 78.9811 88.5561 78.0625C87.0125 77.1345 85.8194 75.8324 84.9766 74.1562C84.1432 72.4706 83.7266 70.4962 83.7266 68.233C83.7266 65.9981 84.1432 64.0284 84.9766 62.3239C85.8194 60.6193 86.9936 59.2888 88.4993 58.3324C90.0144 57.3759 91.7853 56.8977 93.8118 56.8977C95.0429 56.8977 96.236 57.1013 97.3913 57.5085C98.5466 57.9157 99.5836 58.5549 100.502 59.4261C101.421 60.2973 102.145 61.429 102.675 62.821C103.206 64.2036 103.471 65.8845 103.471 67.8636V69.3693H86.1271V66.1875H99.3089C99.3089 65.0701 99.0817 64.0805 98.6271 63.2188C98.1726 62.3475 97.5334 61.661 96.7095 61.1591C95.8951 60.6572 94.9387 60.4062 93.8402 60.4062C92.647 60.4062 91.6054 60.6998 90.7152 61.2869C89.8345 61.8646 89.1527 62.6222 88.6697 63.5597C88.1963 64.4877 87.9595 65.4962 87.9595 66.5852V69.071C87.9595 70.5294 88.2152 71.7699 88.7266 72.7926C89.2474 73.8153 89.9718 74.5966 90.8999 75.1364C91.8279 75.6667 92.9122 75.9318 94.1527 75.9318C94.9576 75.9318 95.6915 75.8182 96.3544 75.5909C97.0173 75.3542 97.5902 75.0038 98.0732 74.5398C98.5561 74.0758 98.9254 73.5028 99.1811 72.821L103.201 73.5455C102.879 74.7292 102.301 75.7661 101.468 76.6562C100.644 77.5369 99.6072 78.2235 98.3572 78.7159C97.1167 79.1989 95.701 79.4403 94.1101 79.4403ZM112.43 49.9091V79H108.183V49.9091H112.43ZM118.144 79V57.1818H122.391V79H118.144ZM120.289 53.8153C119.55 53.8153 118.916 53.5691 118.386 53.0767C117.865 52.5748 117.604 51.9782 117.604 51.2869C117.604 50.5862 117.865 49.9896 118.386 49.4972C118.916 48.9953 119.55 48.7443 120.289 48.7443C121.028 48.7443 121.657 48.9953 122.178 49.4972C122.709 49.9896 122.974 50.5862 122.974 51.2869C122.974 51.9782 122.709 52.5748 122.178 53.0767C121.657 53.5691 121.028 53.8153 120.289 53.8153ZM132.352 66.0455V79H128.105V57.1818H132.182V60.733H132.452C132.954 59.5777 133.74 58.6496 134.81 57.9489C135.889 57.2481 137.248 56.8977 138.886 56.8977C140.373 56.8977 141.675 57.2102 142.793 57.8352C143.91 58.4508 144.777 59.3693 145.392 60.5909C146.008 61.8125 146.315 63.3229 146.315 65.1222V79H142.068V65.6335C142.068 64.0521 141.656 62.8163 140.832 61.9261C140.009 61.0265 138.877 60.5767 137.438 60.5767C136.453 60.5767 135.577 60.7898 134.81 61.2159C134.052 61.642 133.451 62.267 133.006 63.0909C132.57 63.9053 132.352 64.8902 132.352 66.0455ZM161.159 87.6364C159.426 87.6364 157.935 87.4091 156.685 86.9545C155.444 86.5 154.431 85.8987 153.645 85.1506C152.859 84.4025 152.272 83.5833 151.884 82.6932L155.534 81.1875C155.79 81.6042 156.131 82.0445 156.557 82.5085C156.992 82.982 157.58 83.3845 158.318 83.7159C159.066 84.0473 160.027 84.2131 161.202 84.2131C162.812 84.2131 164.142 83.8201 165.193 83.0341C166.244 82.2576 166.77 81.017 166.77 79.3125V75.0227H166.5C166.244 75.4867 165.875 76.0028 165.392 76.571C164.919 77.1392 164.265 77.6316 163.432 78.0483C162.598 78.465 161.514 78.6733 160.179 78.6733C158.455 78.6733 156.902 78.2708 155.52 77.4659C154.147 76.6515 153.058 75.4536 152.253 73.8722C151.457 72.2812 151.06 70.3258 151.06 68.0057C151.06 65.6856 151.453 63.697 152.239 62.0398C153.034 60.3826 154.123 59.1136 155.506 58.233C156.888 57.3428 158.455 56.8977 160.207 56.8977C161.562 56.8977 162.655 57.125 163.489 57.5795C164.322 58.0246 164.971 58.5455 165.435 59.142C165.908 59.7386 166.273 60.2642 166.528 60.7188H166.841V57.1818H171.003V79.483C171.003 81.358 170.567 82.8968 169.696 84.0994C168.825 85.3021 167.646 86.1922 166.159 86.7699C164.682 87.3475 163.015 87.6364 161.159 87.6364ZM161.116 75.1506C162.338 75.1506 163.37 74.8665 164.213 74.2983C165.065 73.7206 165.709 72.8968 166.145 71.8267C166.59 70.7472 166.812 69.4545 166.812 67.9489C166.812 66.4811 166.595 65.1884 166.159 64.071C165.723 62.9536 165.084 62.0824 164.241 61.4574C163.399 60.8229 162.357 60.5057 161.116 60.5057C159.838 60.5057 158.773 60.8371 157.92 61.5C157.068 62.1534 156.424 63.0436 155.989 64.1705C155.563 65.2973 155.349 66.5568 155.349 67.9489C155.349 69.3788 155.567 70.6335 156.003 71.7131C156.438 72.7926 157.082 73.6354 157.935 74.2415C158.796 74.8475 159.857 75.1506 161.116 75.1506ZM192.015 49.9091V79H187.626V49.9091H192.015ZM202.313 66.0455V79H198.066V57.1818H202.143V60.733H202.413C202.915 59.5777 203.701 58.6496 204.771 57.9489C205.85 57.2481 207.209 56.8977 208.847 56.8977C210.334 56.8977 211.636 57.2102 212.754 57.8352C213.871 58.4508 214.737 59.3693 215.353 60.5909C215.969 61.8125 216.276 63.3229 216.276 65.1222V79H212.029V65.6335C212.029 64.0521 211.617 62.8163 210.793 61.9261C209.969 61.0265 208.838 60.5767 207.398 60.5767C206.414 60.5767 205.538 60.7898 204.771 61.2159C204.013 61.642 203.412 62.267 202.967 63.0909C202.531 63.9053 202.313 64.8902 202.313 66.0455ZM232.356 57.1818V60.5909H220.026V57.1818H232.356ZM223.407 79V54.6534C223.407 53.2898 223.705 52.1581 224.302 51.2585C224.898 50.3494 225.689 49.6723 226.674 49.2273C227.659 48.7727 228.729 48.5455 229.884 48.5455C230.737 48.5455 231.466 48.6165 232.072 48.7585C232.678 48.8911 233.128 49.0142 233.421 49.1278L232.427 52.5653C232.228 52.5085 231.972 52.4422 231.66 52.3665C231.347 52.2812 230.969 52.2386 230.523 52.2386C229.491 52.2386 228.753 52.4943 228.308 53.0057C227.872 53.517 227.654 54.2557 227.654 55.2216V79H223.407ZM245.069 79.4403C243.023 79.4403 241.238 78.9716 239.714 78.0341C238.189 77.0966 237.005 75.785 236.163 74.0994C235.32 72.4138 234.898 70.4441 234.898 68.1903C234.898 65.9271 235.32 63.9479 236.163 62.2528C237.005 60.5578 238.189 59.2415 239.714 58.304C241.238 57.3665 243.023 56.8977 245.069 56.8977C247.114 56.8977 248.899 57.3665 250.424 58.304C251.949 59.2415 253.132 60.5578 253.975 62.2528C254.818 63.9479 255.239 65.9271 255.239 68.1903C255.239 70.4441 254.818 72.4138 253.975 74.0994C253.132 75.785 251.949 77.0966 250.424 78.0341C248.899 78.9716 247.114 79.4403 245.069 79.4403ZM245.083 75.875C246.409 75.875 247.507 75.5246 248.379 74.8239C249.25 74.1231 249.894 73.1903 250.31 72.0256C250.737 70.8608 250.95 69.5777 250.95 68.1761C250.95 66.7841 250.737 65.5057 250.31 64.3409C249.894 63.1667 249.25 62.2244 248.379 61.5142C247.507 60.804 246.409 60.4489 245.083 60.4489C243.748 60.4489 242.64 60.804 241.759 61.5142C240.888 62.2244 240.239 63.1667 239.813 64.3409C239.397 65.5057 239.188 66.7841 239.188 68.1761C239.188 69.5777 239.397 70.8608 239.813 72.0256C240.239 73.1903 240.888 74.1231 241.759 74.8239C242.64 75.5246 243.748 75.875 245.083 75.875ZM259.98 79V57.1818H264.085V60.6477H264.312C264.71 59.4735 265.411 58.5502 266.415 57.8778C267.428 57.196 268.574 56.8551 269.852 56.8551C270.117 56.8551 270.43 56.8646 270.79 56.8835C271.159 56.9025 271.448 56.9261 271.656 56.9545V61.017C271.486 60.9697 271.183 60.9176 270.747 60.8608C270.312 60.7945 269.876 60.7614 269.44 60.7614C268.437 60.7614 267.542 60.9744 266.756 61.4006C265.979 61.8172 265.364 62.3996 264.909 63.1477C264.455 63.8864 264.227 64.7292 264.227 65.6761V79H259.98ZM275.332 79V57.1818H279.408V60.733H279.678C280.133 59.5303 280.876 58.5928 281.908 57.9205C282.941 57.2386 284.176 56.8977 285.616 56.8977C287.074 56.8977 288.296 57.2386 289.281 57.9205C290.275 58.6023 291.009 59.5398 291.482 60.733H291.71C292.23 59.5682 293.059 58.6402 294.195 57.9489C295.332 57.2481 296.686 56.8977 298.258 56.8977C300.237 56.8977 301.852 57.518 303.102 58.7585C304.361 59.9991 304.991 61.8693 304.991 64.3693V79H300.744V64.767C300.744 63.2898 300.341 62.2197 299.536 61.5568C298.731 60.8939 297.77 60.5625 296.653 60.5625C295.27 60.5625 294.195 60.9886 293.428 61.8409C292.661 62.6837 292.278 63.768 292.278 65.0938V79H288.045V64.4972C288.045 63.3134 287.675 62.3617 286.937 61.642C286.198 60.9223 285.237 60.5625 284.053 60.5625C283.248 60.5625 282.505 60.7756 281.823 61.2017C281.151 61.6184 280.606 62.2008 280.19 62.9489C279.782 63.697 279.579 64.5634 279.579 65.5483V79H275.332ZM317.033 79.483C315.65 79.483 314.4 79.2273 313.283 78.7159C312.165 78.1951 311.28 77.4422 310.626 76.4574C309.982 75.4725 309.661 74.2652 309.661 72.8352C309.661 71.6042 309.897 70.5909 310.371 69.7955C310.844 69 311.483 68.3703 312.288 67.9062C313.093 67.4422 313.993 67.0919 314.987 66.8551C315.982 66.6184 316.995 66.4384 318.027 66.3153C319.334 66.1638 320.394 66.0407 321.209 65.946C322.023 65.8419 322.615 65.6761 322.984 65.4489C323.354 65.2216 323.538 64.8523 323.538 64.3409V64.2415C323.538 63.0009 323.188 62.0398 322.487 61.358C321.796 60.6761 320.764 60.3352 319.391 60.3352C317.961 60.3352 316.834 60.6525 316.01 61.2869C315.196 61.9119 314.632 62.608 314.32 63.375L310.328 62.4659C310.802 61.1402 311.493 60.0701 312.402 59.2557C313.321 58.4318 314.376 57.8352 315.57 57.4659C316.763 57.0871 318.018 56.8977 319.334 56.8977C320.205 56.8977 321.128 57.0019 322.104 57.2102C323.089 57.4091 324.007 57.7784 324.859 58.3182C325.721 58.858 326.427 59.6297 326.976 60.6335C327.525 61.6278 327.8 62.9205 327.8 64.5114V79H323.652V76.017H323.482C323.207 76.5663 322.795 77.1061 322.246 77.6364C321.696 78.1667 320.991 78.607 320.129 78.9574C319.268 79.3078 318.235 79.483 317.033 79.483ZM317.956 76.0739C319.13 76.0739 320.134 75.8419 320.967 75.3778C321.81 74.9138 322.449 74.3078 322.885 73.5597C323.33 72.8021 323.553 71.9924 323.553 71.1307V68.3182C323.401 68.4697 323.107 68.6117 322.672 68.7443C322.246 68.8674 321.758 68.9763 321.209 69.071C320.66 69.1562 320.125 69.2367 319.604 69.3125C319.083 69.3788 318.647 69.4356 318.297 69.483C317.473 69.5871 316.72 69.7623 316.038 70.0085C315.366 70.2547 314.826 70.6098 314.419 71.0739C314.021 71.5284 313.822 72.1345 313.822 72.892C313.822 73.9432 314.211 74.7386 314.987 75.2784C315.764 75.8087 316.753 76.0739 317.956 76.0739ZM343.641 57.1818V60.5909H331.724V57.1818H343.641ZM334.92 51.9545H339.167V72.5938C339.167 73.4176 339.29 74.0379 339.536 74.4545C339.782 74.8617 340.1 75.1411 340.488 75.2926C340.886 75.4347 341.317 75.5057 341.781 75.5057C342.121 75.5057 342.42 75.482 342.675 75.4347C342.931 75.3873 343.13 75.3494 343.272 75.321L344.039 78.8295C343.793 78.9242 343.442 79.0189 342.988 79.1136C342.533 79.2178 341.965 79.2746 341.283 79.2841C340.166 79.303 339.124 79.1042 338.158 78.6875C337.192 78.2708 336.411 77.6269 335.815 76.7557C335.218 75.8845 334.92 74.7907 334.92 73.4744V51.9545ZM348.339 79V57.1818H352.587V79H348.339ZM350.484 53.8153C349.746 53.8153 349.111 53.5691 348.581 53.0767C348.06 52.5748 347.8 51.9782 347.8 51.2869C347.8 50.5862 348.06 49.9896 348.581 49.4972C349.111 48.9953 349.746 48.7443 350.484 48.7443C351.223 48.7443 351.853 48.9953 352.374 49.4972C352.904 49.9896 353.169 50.5862 353.169 51.2869C353.169 51.9782 352.904 52.5748 352.374 53.0767C351.853 53.5691 351.223 53.8153 350.484 53.8153ZM367.491 79.4403C365.445 79.4403 363.66 78.9716 362.136 78.0341C360.611 77.0966 359.427 75.785 358.585 74.0994C357.742 72.4138 357.32 70.4441 357.32 68.1903C357.32 65.9271 357.742 63.9479 358.585 62.2528C359.427 60.5578 360.611 59.2415 362.136 58.304C363.66 57.3665 365.445 56.8977 367.491 56.8977C369.536 56.8977 371.321 57.3665 372.846 58.304C374.371 59.2415 375.554 60.5578 376.397 62.2528C377.24 63.9479 377.661 65.9271 377.661 68.1903C377.661 70.4441 377.24 72.4138 376.397 74.0994C375.554 75.785 374.371 77.0966 372.846 78.0341C371.321 78.9716 369.536 79.4403 367.491 79.4403ZM367.505 75.875C368.831 75.875 369.929 75.5246 370.8 74.8239C371.672 74.1231 372.316 73.1903 372.732 72.0256C373.158 70.8608 373.371 69.5777 373.371 68.1761C373.371 66.7841 373.158 65.5057 372.732 64.3409C372.316 63.1667 371.672 62.2244 370.8 61.5142C369.929 60.804 368.831 60.4489 367.505 60.4489C366.17 60.4489 365.062 60.804 364.181 61.5142C363.31 62.2244 362.661 63.1667 362.235 64.3409C361.818 65.5057 361.61 66.7841 361.61 68.1761C361.61 69.5777 361.818 70.8608 362.235 72.0256C362.661 73.1903 363.31 74.1231 364.181 74.8239C365.062 75.5246 366.17 75.875 367.505 75.875ZM386.649 66.0455V79H382.402V57.1818H386.479V60.733H386.749C387.25 59.5777 388.036 58.6496 389.107 57.9489C390.186 57.2481 391.545 56.8977 393.183 56.8977C394.67 56.8977 395.972 57.2102 397.089 57.8352C398.207 58.4508 399.073 59.3693 399.689 60.5909C400.304 61.8125 400.612 63.3229 400.612 65.1222V79H396.365V65.6335C396.365 64.0521 395.953 62.8163 395.129 61.9261C394.305 61.0265 393.174 60.5767 391.734 60.5767C390.75 60.5767 389.874 60.7898 389.107 61.2159C388.349 61.642 387.748 62.267 387.303 63.0909C386.867 63.9053 386.649 64.8902 386.649 66.0455Z" fill="black"/>
</svg>
